HIERARCHY
ROOT Hips
{
 OFFSET 0.000000 0.000000 0.000000
 CHANNELS 6 Xposition Yposition Zposition Yrotation Xrotation Zrotation
 JOINT Chest
 {
  OFFSET 0.000000 10.503509 -1.167057
  CHANNELS 3 Yrotation Xrotation Zrotation
  JOINT Chest2
  {
   OFFSET 0.000000 11.606230 0.000000
   CHANNELS 3 Yrotation Xrotation Zrotation
   JOINT Chest3
   {
    OFFSET 0.000000 10.598749 -0.014629
    CHANNELS 3 Yrotation Xrotation Zrotation
    JOINT Chest4
    {
     OFFSET 0.000000 10.586916 -0.014644
     CHANNELS 3 Yrotation Xrotation Zrotation
     JOINT Neck
     {
      OFFSET 0.000000 15.278769 0.000000
      CHANNELS 3 Yrotation Xrotation Zrotation
      JOINT Head
      {
       OFFSET 0.000000 10.382624 -0.010304
       CHANNELS 3 Yrotation Xrotation Zrotation
       End Site
       {
        OFFSET 0.000000 19.690639 -0.007003
       }
      }
     }
     JOINT RightCollar
     {
      OFFSET -3.656259 8.573257 0.000000
      CHANNELS 3 Yrotation Xrotation Zrotation
      JOINT RightShoulder
      {
       OFFSET -17.084769 0.000000 0.000000
       CHANNELS 3 Yrotation Xrotation Zrotation
       JOINT RightElbow
       {
        OFFSET -32.974620 0.000000 0.000000
        CHANNELS 3 Yrotation Xrotation Zrotation
        JOINT RightWrist
        {
         OFFSET -26.972293 0.000000 0.000000
         CHANNELS 3 Yrotation Xrotation Zrotation
         End Site
         {
          OFFSET -20.184599 0.000000 0.000000
         }
        }
       }
      }
     }
     JOINT LeftCollar
     {
      OFFSET 3.656259 8.573257 0.000000
      CHANNELS 3 Yrotation Xrotation Zrotation
      JOINT LeftShoulder
      {
       OFFSET 17.084769 0.000000 0.000000
       CHANNELS 3 Yrotation Xrotation Zrotation
       JOINT LeftElbow
       {
        OFFSET 32.974620 0.000000 0.000000
        CHANNELS 3 Yrotation Xrotation Zrotation
        JOINT LeftWrist
        {
         OFFSET 26.972293 0.000000 0.000000
         CHANNELS 3 Yrotation Xrotation Zrotation
         End Site
         {
          OFFSET 20.184599 0.000000 0.000000
         }
        }
       }
      }
     }
    }
   }
  }
 }
 JOINT RightHip
 {
  OFFSET -8.694749 0.036960 -0.004107
  CHANNELS 3 Yrotation Xrotation Zrotation
  JOINT RightKnee
  {
   OFFSET 0.000000 -44.282926 -0.003458
   CHANNELS 3 Yrotation Xrotation Zrotation
   JOINT RightAnkle
   {
    OFFSET 0.000000 -43.246824 0.044986
    CHANNELS 3 Yrotation Xrotation Zrotation
    JOINT RightToe
    {
     OFFSET 0.000000 -8.545248 17.800930
     CHANNELS 3 Yrotation Xrotation Zrotation
     End Site
     {
      OFFSET 0.000000 -5.484847 5.975775
     }
    }
   }
  }
 }
 JOINT LeftHip
 {
  OFFSET 8.694749 0.034653 -0.003850
  CHANNELS 3 Yrotation Xrotation Zrotation
  JOINT LeftKnee
  {
   OFFSET 0.000000 -44.282926 -0.003458
   CHANNELS 3 Yrotation Xrotation Zrotation
   JOINT LeftAnkle
   {
    OFFSET 0.000000 -43.246824 0.044986
    CHANNELS 3 Yrotation Xrotation Zrotation
    JOINT LeftToe
    {
     OFFSET 0.000000 -8.545248 17.800930
     CHANNELS 3 Yrotation Xrotation Zrotation
     End Site
     {
      OFFSET 0.000000 -5.484847 5.975775
     }
    }
   }
  }
 }
}
MOTION
Frames: 10
Frame Time: 0.004167
0.000000 102.315063 0.000000 0.000000 6.340192 0.000000 0.000000 -6.340192 0.000000 0.000000 -5.826342 0.000000 0.000000 -0.005910 0.000000 0.000000 5.832252 0.000000 0.000000 12.610213 0.000000 0.000000 -9.243752 0.000000 0.000000 0.000000 0.000000 0.000000 0.000000 0.000000 2.309063 0.000000 0.000000 -2.309063 0.000000 0.000000 0.000000 0.000000 0.000000 0.000000 0.000000 0.000000 -2.309063 0.000000 0.000000 2.309063 0.000000 0.000000 0.000000 -3.591006 0.000000 0.000000 1.872585 0.000000 0.000000 -4.621771 0.000000 0.000000 0.000000 0.000000 0.000000 -3.587706 0.000000 0.000000 1.905768 0.000000 0.000000 -4.658254 0.000000 0.000000 0.000000 0.000000
17.196325 101.819018 16.218172 1.541073 6.328241 -0.391229 -0.110541 -2.914330 0.204576 -0.057055 -7.121641 0.090876 -0.056639 -1.301212 0.085083 -0.035802 4.860764 0.063906 -0.535512 18.210696 -0.466014 -0.831240 -2.210183 -0.680585 1.925097 -1.480621 9.119060 5.669327 0.228721 82.549957 20.038114 11.087722 4.790001 -5.958050 8.590946 -0.248820 -0.995762 -2.008025 -9.953398 -9.478885 6.783268 -82.534942 -20.218944 8.167343 -2.985162 8.660048 24.509255 -0.617184 -2.785903 -3.356599 1.192597 -0.132614 2.444545 0.112701 -1.734860 -8.981984 1.927479 0.000000 0.000000 -0.000000 -1.859992 -4.036942 1.029795 0.086107 2.127702 0.068745 -0.319329 -4.942192 -2.629393 -0.000000 -0.000000 0.000000
17.202834 101.815647 16.220639 1.535970 6.323427 -0.394261 -0.110223 -2.910793 0.207836 -0.057044 -7.120069 0.092338 -0.056627 -1.299640 0.086546 -0.035678 4.861942 0.065007 -0.535640 18.209152 -0.465792 -0.831545 -2.213050 -0.680131 1.922416 -1.479445 9.104992 5.671384 0.229105 82.554711 20.041859 11.085608 4.791688 -5.957132 8.591199 -0.246313 -0.995946 -2.006938 -9.948281 -9.480487 6.782663 -82.539663 -20.216742 8.165914 -2.985427 8.659392 24.508940 -0.619769 -2.781414 -3.352076 1.201162 -0.133045 2.441634 0.093174 -1.738557 -8.965129 1.940765 -0.000000 0.000000 0.000000 -1.856653 -4.024327 1.023377 0.089054 2.116877 0.075209 -0.320616 -4.942905 -2.628159 0.000000 -0.000000 0.000000
17.209364 101.812187 16.223131 1.530848 6.318520 -0.397366 -0.109918 -2.907231 0.211138 -0.057040 -7.118486 0.093819 -0.056624 -1.298058 0.088027 -0.035560 4.863129 0.066122 -0.535741 18.207653 -0.465581 -0.831799 -2.215832 -0.679705 1.919683 -1.478258 9.090767 5.673417 0.229452 82.559572 20.045716 11.083475 4.793408 -5.956209 8.591424 -0.243805 -0.996119 -2.005787 -9.943090 -9.482139 6.782056 -82.544482 -20.214471 8.164441 -2.985667 8.658753 24.508649 -0.622460 -2.776773 -3.347468 1.209943 -0.133616 2.438679 0.073364 -1.742304 -8.948094 1.954206 -0.000000 0.000000 -0.000000 -1.853288 -4.011528 1.016920 0.092044 2.105904 0.081752 -0.321941 -4.943622 -2.626937 0.000000 0.000000 -0.000000
17.215907 101.808676 16.225638 1.525716 6.313559 -0.400512 -0.109622 -2.903654 0.214464 -0.057040 -7.116897 0.095310 -0.056624 -1.296469 0.089518 -0.035443 4.864321 0.067245 -0.535827 18.206181 -0.465376 -0.832022 -2.218565 -0.679295 1.916919 -1.477066 9.076452 5.675437 0.229778 82.564495 20.049637 11.081331 4.795146 -5.955284 8.591633 -0.241297 -0.996286 -2.004599 -9.937857 -9.483818 6.781447 -82.549356 -20.212159 8.162943 -2.985892 8.658123 24.508372 -0.625211 -2.772045 -3.342811 1.218848 -0.134267 2.435698 0.053394 -1.746075 -8.930955 1.967735 0.000000 0.000000 -0.000000 -1.849911 -3.998624 1.010440 0.095058 2.094845 0.088340 -0.323288 -4.944342 -2.625721 0.000000 0.000000 0.000000
17.222454 101.805152 16.228148 1.520581 6.308584 -0.403668 -0.109327 -2.900074 0.217796 -0.057042 -7.115307 0.096804 -0.056627 -1.294878 0.091012 -0.035328 4.865514 0.068369 -0.535909 18.204716 -0.465173 -0.832238 -2.221286 -0.678888 1.914147 -1.475874 9.062114 5.677454 0.230098 82.569433 20.053574 11.079184 4.796889 -5.954359 8.591838 -0.238789 -0.996450 -2.003402 -9.932614 -9.485505 6.780838 -82.554244 -20.209838 8.161438 -2.986113 8.657496 24.508100 -0.627977 -2.767295 -3.338143 1.227784 -0.134937 2.432711 0.033383 -1.749848 -8.913788 1.981285 -0.000000 0.000000 0.000000 -1.846530 -3.985694 1.003955 0.098076 2.083765 0.094939 -0.324641 -4.945062 -2.624508 0.000000 -0.000000 0.000000
17.228994 101.801654 16.230652 1.515452 6.303636 -0.406802 -0.109029 -2.896501 0.221115 -0.057042 -7.113719 0.098292 -0.056626 -1.293290 0.092501 -0.035211 4.866704 0.069490 -0.535999 18.203237 -0.464966 -0.832468 -2.224032 -0.678474 1.911389 -1.474687 9.047821 5.679479 0.230430 82.574340 20.057478 11.077042 4.798622 -5.953435 8.592052 -0.236281 -0.996617 -2.002223 -9.927392 -9.487179 6.780228 -82.559104 -20.207537 8.159946 -2.986343 8.656864 24.507820 -0.630713 -2.762588 -3.333498 1.236658 -0.135565 2.429736 0.013452 -1.753597 -8.896672 1.994787 0.000000 0.000000 0.000000 -1.843156 -3.972817 0.997480 0.101079 2.072726 0.101514 -0.325983 -4.945780 -2.623290 0.000000 0.000000 0.000000
17.235518 101.798220 16.233137 1.510337 6.298754 -0.409885 -0.108720 -2.892944 0.224404 -0.057035 -7.112139 0.099767 -0.056620 -1.291710 0.093976 -0.035091 4.867889 0.070600 -0.536107 18.201726 -0.464752 -0.832735 -2.226838 -0.678039 1.908666 -1.473512 9.033640 5.681521 0.230788 82.579169 20.061302 11.074913 4.800334 -5.952514 8.592285 -0.233773 -0.996792 -2.001089 -9.922223 -9.488818 6.779619 -82.563895 -20.205285 8.158487 -2.986592 8.656219 24.507524 -0.633374 -2.757990 -3.328915 1.245379 -0.136090 2.426793 -0.006276 -1.757298 -8.879682 2.008175 0.000000 0.000000 -0.000000 -1.839800 -3.960072 0.991034 0.104048 2.061792 0.108031 -0.327298 -4.946496 -2.622065 -0.000000 -0.000000 0.000000
17.242016 101.794887 16.235592 1.505244 6.293978 -0.412884 -0.108395 -2.889416 0.227644 -0.057020 -7.110571 0.101220 -0.056606 -1.290142 0.095431 -0.034965 4.869065 0.071695 -0.536245 18.200162 -0.464525 -0.833061 -2.229741 -0.677572 1.906001 -1.472354 9.019641 5.683590 0.231189 82.583876 20.064997 11.072806 4.802008 -5.951599 8.592549 -0.231266 -0.996980 -2.000027 -9.917138 -9.490401 6.779010 -82.568574 -20.203113 8.157078 -2.986872 8.655555 24.507199 -0.635915 -2.753566 -3.324429 1.253854 -0.136452 2.423899 -0.025682 -1.760927 -8.862896 2.021382 -0.000000 -0.000000 -0.000000 -1.836473 -3.947538 0.984632 0.106964 2.051028 0.114456 -0.328569 -4.947207 -2.620827 -0.000000 -0.000000 -0.000000
17.248480 101.791694 16.238008 1.500182 6.289349 -0.415768 -0.108048 -2.885925 0.230819 -0.056992 -7.109020 0.102644 -0.056578 -1.288591 0.096857 -0.034833 4.870228 0.072769 -0.536425 18.198527 -0.464281 -0.833469 -2.232778 -0.677060 1.903415 -1.471218 9.005889 5.685698 0.231648 82.588413 20.068516 11.070728 4.803632 -5.950691 8.592857 -0.228759 -0.997185 -1.999064 -9.912168 -9.491909 6.778403 -82.573100 -20.201051 8.155739 -2.987193 8.654864 24.506837 -0.638290 -2.749380 -3.320077 1.261991 -0.136589 2.421075 -0.044643 -1.764460 -8.846390 2.034340 0.000000 -0.000000 0.000000 -1.833185 -3.935295 0.978291 0.109808 2.040495 0.120755 -0.329780 -4.947911 -2.619571 0.000000 0.000000 0.000000
